<mxfile host="app.diagrams.net" agent="Mozilla/5.0 (Windows NT 10.0; Win64; x64) AppleWebKit/537.36 (KHTML, like Gecko) Chrome/130.0.0.0 Safari/537.36 Edg/130.0.0.0" version="24.8.2">
  <diagram name="Página-1" id="BP4AbERyuBnWixQ-9LEj">
    <mxGraphModel dx="790" dy="511" grid="1" gridSize="10" guides="1" tooltips="1" connect="1" arrows="1" fold="1" page="1" pageScale="1" pageWidth="827" pageHeight="1169" math="0" shadow="0">
      <root>
        <mxCell id="0" />
        <mxCell id="1" parent="0" />
        <mxCell id="rVKsT5YI1XKHqGv1dJcl-1" value="Usuario" style="shape=umlLifeline;perimeter=lifelinePerimeter;whiteSpace=wrap;html=1;container=1;collapsible=0;recursiveResize=0;outlineConnect=0;rounded=1;shadow=0;comic=0;labelBackgroundColor=none;strokeWidth=1;fontFamily=Verdana;fontSize=12;align=center;" vertex="1" parent="1">
          <mxGeometry x="30" y="30" width="100" height="1080" as="geometry" />
        </mxCell>
        <mxCell id="rVKsT5YI1XKHqGv1dJcl-2" value="" style="html=1;points=[[0,0,0,0,5],[0,1,0,0,-5],[1,0,0,0,5],[1,1,0,0,-5]];perimeter=orthogonalPerimeter;outlineConnect=0;targetShapes=umlLifeline;portConstraint=eastwest;newEdgeStyle={&quot;curved&quot;:0,&quot;rounded&quot;:0};" vertex="1" parent="rVKsT5YI1XKHqGv1dJcl-1">
          <mxGeometry x="45" y="87" width="10" height="143" as="geometry" />
        </mxCell>
        <mxCell id="rVKsT5YI1XKHqGv1dJcl-3" value="" style="endArrow=classic;html=1;rounded=0;dashed=1;" edge="1" parent="rVKsT5YI1XKHqGv1dJcl-1" source="rVKsT5YI1XKHqGv1dJcl-2" target="rVKsT5YI1XKHqGv1dJcl-1">
          <mxGeometry width="50" height="50" relative="1" as="geometry">
            <mxPoint x="480.5" y="200" as="sourcePoint" />
            <mxPoint x="170" y="200" as="targetPoint" />
          </mxGeometry>
        </mxCell>
        <mxCell id="rVKsT5YI1XKHqGv1dJcl-43" value="" style="html=1;points=[[0,0,0,0,5],[0,1,0,0,-5],[1,0,0,0,5],[1,1,0,0,-5]];perimeter=orthogonalPerimeter;outlineConnect=0;targetShapes=umlLifeline;portConstraint=eastwest;newEdgeStyle={&quot;curved&quot;:0,&quot;rounded&quot;:0};" vertex="1" parent="rVKsT5YI1XKHqGv1dJcl-1">
          <mxGeometry x="45" y="910" width="10" height="80" as="geometry" />
        </mxCell>
        <mxCell id="rVKsT5YI1XKHqGv1dJcl-6" value="Middleware&lt;div&gt;&quot;Auth&quot;&lt;/div&gt;" style="shape=umlLifeline;perimeter=lifelinePerimeter;whiteSpace=wrap;html=1;container=1;collapsible=0;recursiveResize=0;outlineConnect=0;rounded=1;shadow=0;comic=0;labelBackgroundColor=none;strokeWidth=1;fontFamily=Verdana;fontSize=12;align=center;" vertex="1" parent="1">
          <mxGeometry x="244" y="39" width="100" height="1071" as="geometry" />
        </mxCell>
        <mxCell id="rVKsT5YI1XKHqGv1dJcl-7" value="" style="html=1;points=[[0,0,0,0,5],[0,1,0,0,-5],[1,0,0,0,5],[1,1,0,0,-5]];perimeter=orthogonalPerimeter;outlineConnect=0;targetShapes=umlLifeline;portConstraint=eastwest;newEdgeStyle={&quot;curved&quot;:0,&quot;rounded&quot;:0};" vertex="1" parent="rVKsT5YI1XKHqGv1dJcl-6">
          <mxGeometry x="45" y="87" width="10" height="143" as="geometry" />
        </mxCell>
        <mxCell id="rVKsT5YI1XKHqGv1dJcl-8" value="" style="endArrow=classic;html=1;rounded=0;dashed=1;" edge="1" parent="rVKsT5YI1XKHqGv1dJcl-6" source="rVKsT5YI1XKHqGv1dJcl-7" target="rVKsT5YI1XKHqGv1dJcl-6">
          <mxGeometry width="50" height="50" relative="1" as="geometry">
            <mxPoint x="480.5" y="200" as="sourcePoint" />
            <mxPoint x="170" y="200" as="targetPoint" />
          </mxGeometry>
        </mxCell>
        <mxCell id="rVKsT5YI1XKHqGv1dJcl-9" value="Base de&lt;div&gt;datos&lt;/div&gt;" style="shape=umlLifeline;perimeter=lifelinePerimeter;whiteSpace=wrap;html=1;container=1;collapsible=0;recursiveResize=0;outlineConnect=0;rounded=1;shadow=0;comic=0;labelBackgroundColor=none;strokeWidth=1;fontFamily=Verdana;fontSize=12;align=center;" vertex="1" parent="1">
          <mxGeometry x="410" y="39" width="100" height="1071" as="geometry" />
        </mxCell>
        <mxCell id="rVKsT5YI1XKHqGv1dJcl-10" value="" style="endArrow=classic;html=1;rounded=0;dashed=1;" edge="1" parent="rVKsT5YI1XKHqGv1dJcl-9" target="rVKsT5YI1XKHqGv1dJcl-9">
          <mxGeometry width="50" height="50" relative="1" as="geometry">
            <mxPoint x="49.5" y="158.5" as="sourcePoint" />
            <mxPoint x="170" y="200" as="targetPoint" />
          </mxGeometry>
        </mxCell>
        <mxCell id="rVKsT5YI1XKHqGv1dJcl-33" value="" style="html=1;points=[[0,0,0,0,5],[0,1,0,0,-5],[1,0,0,0,5],[1,1,0,0,-5]];perimeter=orthogonalPerimeter;outlineConnect=0;targetShapes=umlLifeline;portConstraint=eastwest;newEdgeStyle={&quot;curved&quot;:0,&quot;rounded&quot;:0};" vertex="1" parent="rVKsT5YI1XKHqGv1dJcl-9">
          <mxGeometry x="45" y="521" width="10" height="95" as="geometry" />
        </mxCell>
        <mxCell id="rVKsT5YI1XKHqGv1dJcl-37" value="" style="html=1;points=[[0,0,0,0,5],[0,1,0,0,-5],[1,0,0,0,5],[1,1,0,0,-5]];perimeter=orthogonalPerimeter;outlineConnect=0;targetShapes=umlLifeline;portConstraint=eastwest;newEdgeStyle={&quot;curved&quot;:0,&quot;rounded&quot;:0};" vertex="1" parent="rVKsT5YI1XKHqGv1dJcl-9">
          <mxGeometry x="45" y="691" width="10" height="95" as="geometry" />
        </mxCell>
        <mxCell id="rVKsT5YI1XKHqGv1dJcl-13" value="Controlador&lt;div&gt;de reportes&lt;/div&gt;" style="shape=umlLifeline;perimeter=lifelinePerimeter;whiteSpace=wrap;html=1;container=1;collapsible=0;recursiveResize=0;outlineConnect=0;rounded=1;shadow=0;comic=0;labelBackgroundColor=none;strokeWidth=1;fontFamily=Verdana;fontSize=12;align=center;" vertex="1" parent="1">
          <mxGeometry x="600" y="39" width="100" height="1071" as="geometry" />
        </mxCell>
        <mxCell id="rVKsT5YI1XKHqGv1dJcl-14" value="" style="html=1;points=[[0,0,0,0,5],[0,1,0,0,-5],[1,0,0,0,5],[1,1,0,0,-5]];perimeter=orthogonalPerimeter;outlineConnect=0;targetShapes=umlLifeline;portConstraint=eastwest;newEdgeStyle={&quot;curved&quot;:0,&quot;rounded&quot;:0};" vertex="1" parent="rVKsT5YI1XKHqGv1dJcl-13">
          <mxGeometry x="45" y="521" width="10" height="95" as="geometry" />
        </mxCell>
        <mxCell id="rVKsT5YI1XKHqGv1dJcl-15" value="" style="endArrow=classic;html=1;rounded=0;dashed=1;" edge="1" parent="rVKsT5YI1XKHqGv1dJcl-13" source="rVKsT5YI1XKHqGv1dJcl-14" target="rVKsT5YI1XKHqGv1dJcl-13">
          <mxGeometry width="50" height="50" relative="1" as="geometry">
            <mxPoint x="480.5" y="200" as="sourcePoint" />
            <mxPoint x="170" y="200" as="targetPoint" />
          </mxGeometry>
        </mxCell>
        <mxCell id="rVKsT5YI1XKHqGv1dJcl-38" value="" style="html=1;points=[[0,0,0,0,5],[0,1,0,0,-5],[1,0,0,0,5],[1,1,0,0,-5]];perimeter=orthogonalPerimeter;outlineConnect=0;targetShapes=umlLifeline;portConstraint=eastwest;newEdgeStyle={&quot;curved&quot;:0,&quot;rounded&quot;:0};" vertex="1" parent="rVKsT5YI1XKHqGv1dJcl-13">
          <mxGeometry x="45" y="691" width="10" height="95" as="geometry" />
        </mxCell>
        <mxCell id="rVKsT5YI1XKHqGv1dJcl-42" value="" style="html=1;points=[[0,0,0,0,5],[0,1,0,0,-5],[1,0,0,0,5],[1,1,0,0,-5]];perimeter=orthogonalPerimeter;outlineConnect=0;targetShapes=umlLifeline;portConstraint=eastwest;newEdgeStyle={&quot;curved&quot;:0,&quot;rounded&quot;:0};" vertex="1" parent="rVKsT5YI1XKHqGv1dJcl-13">
          <mxGeometry x="45" y="901" width="10" height="80" as="geometry" />
        </mxCell>
        <mxCell id="rVKsT5YI1XKHqGv1dJcl-18" style="edgeStyle=orthogonalEdgeStyle;rounded=0;orthogonalLoop=1;jettySize=auto;html=1;curved=0;dashed=1;" edge="1" parent="1">
          <mxGeometry relative="1" as="geometry">
            <mxPoint x="90" y="170" as="sourcePoint" />
            <mxPoint x="294" y="170" as="targetPoint" />
            <Array as="points">
              <mxPoint x="235" y="170.5" />
              <mxPoint x="235" y="170.5" />
            </Array>
          </mxGeometry>
        </mxCell>
        <mxCell id="rVKsT5YI1XKHqGv1dJcl-19" value="Solicita enviar&lt;div&gt;datos para generar&lt;/div&gt;&lt;div&gt;un reporte en PDF de&lt;/div&gt;&lt;div&gt;las actuaciones fiscales&lt;/div&gt;&lt;div&gt;&lt;br&gt;&lt;/div&gt;" style="text;html=1;align=center;verticalAlign=middle;resizable=0;points=[];autosize=1;strokeColor=none;fillColor=none;" vertex="1" parent="1">
          <mxGeometry x="115" y="80" width="150" height="90" as="geometry" />
        </mxCell>
        <mxCell id="rVKsT5YI1XKHqGv1dJcl-20" style="edgeStyle=orthogonalEdgeStyle;rounded=0;orthogonalLoop=1;jettySize=auto;html=1;curved=0;dashed=1;" edge="1" parent="1">
          <mxGeometry relative="1" as="geometry">
            <mxPoint x="289" y="230" as="sourcePoint" />
            <mxPoint x="85" y="230" as="targetPoint" />
            <Array as="points">
              <mxPoint x="140" y="230.5" />
              <mxPoint x="140" y="230.5" />
            </Array>
          </mxGeometry>
        </mxCell>
        <mxCell id="rVKsT5YI1XKHqGv1dJcl-21" value="Permite hacer la solicitud&lt;div&gt;de envío de datos hacia el&lt;/div&gt;&lt;div&gt;controlador&lt;/div&gt;" style="text;html=1;align=center;verticalAlign=middle;resizable=0;points=[];autosize=1;strokeColor=none;fillColor=none;" vertex="1" parent="1">
          <mxGeometry x="120" y="173" width="160" height="60" as="geometry" />
        </mxCell>
        <mxCell id="rVKsT5YI1XKHqGv1dJcl-22" value="" style="html=1;points=[[0,0,0,0,5],[0,1,0,0,-5],[1,0,0,0,5],[1,1,0,0,-5]];perimeter=orthogonalPerimeter;outlineConnect=0;targetShapes=umlLifeline;portConstraint=eastwest;newEdgeStyle={&quot;curved&quot;:0,&quot;rounded&quot;:0};" vertex="1" parent="1">
          <mxGeometry x="289" y="350" width="10" height="80" as="geometry" />
        </mxCell>
        <mxCell id="rVKsT5YI1XKHqGv1dJcl-23" value="" style="endArrow=open;endFill=1;endSize=12;html=1;rounded=0;dashed=1;" edge="1" parent="1" source="rVKsT5YI1XKHqGv1dJcl-22" target="rVKsT5YI1XKHqGv1dJcl-1">
          <mxGeometry width="160" relative="1" as="geometry">
            <mxPoint x="180" y="400" as="sourcePoint" />
            <mxPoint x="340" y="400" as="targetPoint" />
          </mxGeometry>
        </mxCell>
        <mxCell id="rVKsT5YI1XKHqGv1dJcl-24" value="No permite enviar datos&lt;div&gt;si el usuario no está logueado&lt;/div&gt;&lt;div&gt;y redirige a página de login&lt;/div&gt;" style="text;html=1;align=center;verticalAlign=middle;resizable=0;points=[];autosize=1;strokeColor=none;fillColor=none;" vertex="1" parent="1">
          <mxGeometry x="100" y="333" width="180" height="60" as="geometry" />
        </mxCell>
        <mxCell id="rVKsT5YI1XKHqGv1dJcl-25" value="" style="html=1;points=[[0,0,0,0,5],[0,1,0,0,-5],[1,0,0,0,5],[1,1,0,0,-5]];perimeter=orthogonalPerimeter;outlineConnect=0;targetShapes=umlLifeline;portConstraint=eastwest;newEdgeStyle={&quot;curved&quot;:0,&quot;rounded&quot;:0};" vertex="1" parent="1">
          <mxGeometry x="75" y="360" width="10" height="80" as="geometry" />
        </mxCell>
        <mxCell id="rVKsT5YI1XKHqGv1dJcl-31" value="frame" style="shape=umlFrame;whiteSpace=wrap;html=1;pointerEvents=0;" vertex="1" parent="1">
          <mxGeometry x="30" y="300" width="330" height="200" as="geometry" />
        </mxCell>
        <mxCell id="rVKsT5YI1XKHqGv1dJcl-35" value="Si el usuario no ingreso&lt;div&gt;ningun filtro / dato,&amp;nbsp;&lt;div&gt;trae&amp;nbsp;&amp;nbsp;&lt;span style=&quot;background-color: initial;&quot;&gt;todos los registros&lt;/span&gt;&lt;div&gt;&lt;div&gt;de las actuaciones en BDD&amp;nbsp;&lt;/div&gt;&lt;div&gt;(ordenado por fecha desde&amp;nbsp;&lt;/div&gt;&lt;/div&gt;&lt;div&gt;la más reciente a la&amp;nbsp;&lt;/div&gt;&lt;div&gt;más antigua)&lt;/div&gt;&lt;/div&gt;&lt;/div&gt;" style="text;html=1;align=center;verticalAlign=middle;resizable=0;points=[];autosize=1;strokeColor=none;fillColor=none;" vertex="1" parent="1">
          <mxGeometry x="470" y="490" width="170" height="110" as="geometry" />
        </mxCell>
        <mxCell id="rVKsT5YI1XKHqGv1dJcl-36" style="edgeStyle=orthogonalEdgeStyle;rounded=0;orthogonalLoop=1;jettySize=auto;html=1;curved=0;dashed=1;" edge="1" parent="1" source="rVKsT5YI1XKHqGv1dJcl-33" target="rVKsT5YI1XKHqGv1dJcl-14">
          <mxGeometry relative="1" as="geometry" />
        </mxCell>
        <mxCell id="rVKsT5YI1XKHqGv1dJcl-39" value="alt" style="shape=umlFrame;whiteSpace=wrap;html=1;pointerEvents=0;" vertex="1" parent="1">
          <mxGeometry x="410" y="690" width="330" height="200" as="geometry" />
        </mxCell>
        <mxCell id="rVKsT5YI1XKHqGv1dJcl-40" style="edgeStyle=orthogonalEdgeStyle;rounded=0;orthogonalLoop=1;jettySize=auto;html=1;curved=0;" edge="1" parent="1" source="rVKsT5YI1XKHqGv1dJcl-37" target="rVKsT5YI1XKHqGv1dJcl-38">
          <mxGeometry relative="1" as="geometry" />
        </mxCell>
        <mxCell id="rVKsT5YI1XKHqGv1dJcl-41" value="Si el usuario ingreso&lt;div&gt;los filtros / dato, solo traerá&lt;/div&gt;&lt;div&gt;las actuaciones que coincidan&lt;/div&gt;&lt;div&gt;con lo que el usuario&lt;/div&gt;&lt;div&gt;solicitó&lt;/div&gt;" style="text;html=1;align=center;verticalAlign=middle;resizable=0;points=[];autosize=1;strokeColor=none;fillColor=none;" vertex="1" parent="1">
          <mxGeometry x="460" y="688" width="180" height="90" as="geometry" />
        </mxCell>
        <mxCell id="rVKsT5YI1XKHqGv1dJcl-44" style="edgeStyle=orthogonalEdgeStyle;rounded=0;orthogonalLoop=1;jettySize=auto;html=1;curved=0;dashed=1;" edge="1" parent="1" source="rVKsT5YI1XKHqGv1dJcl-42" target="rVKsT5YI1XKHqGv1dJcl-43">
          <mxGeometry relative="1" as="geometry" />
        </mxCell>
        <mxCell id="rVKsT5YI1XKHqGv1dJcl-45" value="Genera un archivo PDF con&lt;div&gt;las actuaciones&amp;nbsp;&lt;span style=&quot;background-color: initial;&quot;&gt;fiscales&amp;nbsp;&lt;/span&gt;&lt;/div&gt;&lt;div&gt;&lt;span style=&quot;background-color: initial;&quot;&gt;solicitadas&amp;nbsp;&lt;/span&gt;&lt;span style=&quot;background-color: initial;&quot;&gt;ordenadas en una tabla&lt;/span&gt;&lt;/div&gt;" style="text;html=1;align=center;verticalAlign=middle;resizable=0;points=[];autosize=1;strokeColor=none;fillColor=none;" vertex="1" parent="1">
          <mxGeometry x="430" y="913" width="210" height="60" as="geometry" />
        </mxCell>
      </root>
    </mxGraphModel>
  </diagram>
</mxfile>
